<?xml version="1.0" standalone="no"?>
<!DOCTYPE svg PUBLIC "-//W3C//DTD SVG 20010904//EN"
 "http://www.w3.org/TR/2001/REC-SVG-20010904/DTD/svg10.dtd">
<svg version="1.0" xmlns="http://www.w3.org/2000/svg"
 width="512.000000pt" height="512.000000pt" viewBox="0 0 512.000000 512.000000"
 preserveAspectRatio="xMidYMid meet">
<metadata>
Created by potrace 1.11, written by Peter Selinger 2001-2013
</metadata>
<g transform="translate(0.000000,512.000000) scale(0.100000,-0.100000)"
fill="#000000" stroke="none">
<path d="M2200 4979 c-36 -4 -83 -10 -105 -13 -80 -9 -292 -57 -380 -85 -140
-45 -220 -77 -328 -132 -265 -133 -442 -260 -642 -463 -140 -141 -184 -201
-192 -263 -13 -114 56 -203 168 -218 73 -9 111 12 228 126 189 185 371 339
400 339 5 0 11 4 13 8 6 14 124 82 230 131 262 122 529 183 812 183 269 1 482
-38 736 -135 100 -38 120 -49 113 -60 -3 -6 -1 -7 6 -3 18 12 284 -141 343
-197 7 -7 36 -30 63 -52 126 -100 288 -279 392 -435 146 -219 286 -596 298
-800 2 -30 6 -63 10 -73 10 -24 11 -296 2 -387 -14 -140 -71 -407 -95 -445 -4
-5 -7 -12 -7 -15 -7 -59 -169 -387 -197 -398 -4 -2 -6 -8 -2 -13 3 -5 -2 -12
-10 -15 -9 -3 -16 -11 -16 -17 0 -5 -24 -43 -54 -82 -131 -175 -326 -359 -475
-450 -9 -5 -30 -19 -46 -31 -17 -12 -60 -38 -97 -58 l-66 -37 -7 53 c-3 29
-13 82 -21 117 -9 35 -17 73 -18 85 -2 12 -8 34 -15 49 -6 16 -11 33 -11 38 0
20 -72 194 -116 282 -48 95 -140 246 -261 427 l-70 105 64 27 c71 31 188 104
217 136 10 12 23 19 29 15 6 -3 7 -1 3 5 -3 6 -1 14 7 19 21 13 72 84 104 143
60 113 81 263 53 380 -9 40 -10 69 0 132 14 100 15 265 1 344 -6 32 -12 70
-15 84 -17 100 -76 297 -111 375 -7 17 -23 51 -34 78 -11 26 -22 47 -24 47
-12 0 -134 -128 -197 -206 -29 -35 -84 -119 -83 -124 1 -3 -4 -12 -12 -20 -16
-18 -60 -126 -70 -170 l-7 -31 -56 8 c-95 13 -311 8 -382 -10 -6 -1 -21 27
-34 63 -53 150 -133 272 -268 411 l-82 83 -33 -69 c-47 -103 -111 -305 -137
-435 -27 -137 -33 -321 -13 -430 11 -62 11 -84 0 -125 -47 -182 14 -385 159
-532 85 -87 159 -136 275 -182 l42 -17 -102 -155 c-252 -381 -322 -532 -393
-844 -3 -11 -7 -38 -10 -60 -3 -22 -7 -46 -9 -53 -25 -76 -25 -412 0 -497 63
-212 174 -297 409 -312 129 -8 678 -9 816 0 226 13 333 91 403 292 11 32 23
41 127 90 258 123 448 256 652 455 340 333 579 781 664 1245 4 22 9 47 10 55
4 19 12 96 21 185 12 124 5 392 -13 505 -86 551 -295 971 -674 1350 -285 286
-608 477 -1015 599 -39 12 -82 23 -95 26 -14 3 -47 9 -75 15 -82 17 -98 20
-145 26 -25 3 -56 8 -70 10 -44 9 -413 11 -480 3z"/>
</g>
</svg>
